<svg width="591" height="238" viewBox="0 0 591 238" fill="none" xmlns="http://www.w3.org/2000/svg">
<path d="M42.03 33.7V23.9H11.3V16.9H44.83V5H2.9V54H44.83V42.1H11.3V33.7H42.03ZM79.6353 54H93.7053L77.1153 33.35L91.6053 14.8H81.7353L72.1453 27.19L62.1353 14.8H48.0653L64.6553 35.45L50.1653 54H60.0353L69.6253 41.61L79.6353 54ZM98.2777 63.87H106.678V47.63H107.028C109.478 51.27 114.238 54.77 122.288 54.77C132.788 54.77 142.588 47.07 142.588 34.47C142.588 21.87 132.788 14.1 122.288 14.1C114.238 14.1 109.828 17.25 107.028 21.03H106.678L105.628 14.8H98.2777V63.87ZM106.678 34.33C106.678 27.61 114.378 25.37 121.028 25.37C128.728 25.37 134.538 28.73 134.538 34.47C134.538 40.21 128.728 43.57 121.028 43.57C114.028 43.57 106.678 41.05 106.678 34.33ZM168.602 13.82C153.972 13.82 146.832 22.78 146.832 34.33C146.832 45.88 153.972 55.05 169.512 55.05C174.692 55.05 182.252 54 186.242 52.18L187.642 39.3C182.742 42.1 176.652 43.5 169.162 43.5C164.122 43.5 155.792 42.45 154.672 35.87H188.412C189.392 19.07 180.992 13.82 168.602 13.82ZM155.162 30.97C157.052 26.35 162.932 24.18 167.692 24.18C175.602 24.18 180.572 27.54 180.572 30.97H155.162ZM195.244 14.8V54H203.644V39.65C203.644 30.9 208.964 25.72 215.194 25.72C219.534 25.72 223.104 27.05 225.554 30.27V16.13C223.594 15.15 221.004 13.75 216.174 13.75C210.014 13.75 205.324 16.9 203.994 23.2H203.644L202.664 14.8H195.244ZM229.801 6.12C229.801 9.48 232.461 11.72 236.871 11.72C241.211 11.72 243.801 9.48 243.801 6.12C243.801 2.69 241.351 0.309999 237.011 0.309999C232.601 0.309999 229.801 2.69 229.801 6.12ZM232.881 14.8V54H241.281V14.8H232.881ZM269.823 13.82C255.193 13.82 248.053 22.78 248.053 34.33C248.053 45.88 255.193 55.05 270.733 55.05C275.913 55.05 283.473 54 287.463 52.18L288.863 39.3C283.963 42.1 277.873 43.5 270.383 43.5C265.343 43.5 257.013 42.45 255.893 35.87H289.633C290.613 19.07 282.213 13.82 269.823 13.82ZM256.383 30.97C258.273 26.35 264.153 24.18 268.913 24.18C276.823 24.18 281.793 27.54 281.793 30.97H256.383ZM296.465 14.8V54H304.865V39.58C304.865 32.65 309.275 27.12 316.975 27.12C325.375 27.12 330.345 29.43 330.345 39.37V54H338.745V32.65C338.745 21.45 332.935 13.75 319.845 13.75C313.545 13.75 307.175 16.2 305.215 22.5H304.865L303.815 14.8H296.465ZM385.846 17.46C382.066 15.85 375.556 13.82 366.736 13.82C352.106 13.82 344.336 22.78 344.336 34.33C344.336 45.88 350.216 55.05 368.416 55.05C373.596 55.05 380.666 53.93 385.846 51.62V39.3C381.016 41.26 376.326 43.5 368.066 43.5C362.606 43.5 352.036 42.31 352.036 34.26C352.036 27.4 361.556 25.58 367.366 25.58C374.226 25.58 381.996 27.68 385.916 29.99L385.846 17.46ZM411.171 13.82C396.541 13.82 389.401 22.78 389.401 34.33C389.401 45.88 396.541 55.05 412.081 55.05C417.261 55.05 424.821 54 428.811 52.18L430.211 39.3C425.311 42.1 419.221 43.5 411.731 43.5C406.691 43.5 398.361 42.45 397.241 35.87H430.981C431.961 19.07 423.561 13.82 411.171 13.82ZM397.731 30.97C399.621 26.35 405.501 24.18 410.261 24.18C418.171 24.18 423.141 27.54 423.141 30.97H397.731ZM466.57 5V14.8H458.17L456.7 25.65H466.57V40.07C466.78 50.15 471.96 55.19 483.16 55.19C489.11 55.19 492.47 53.44 494.99 52.46L495.41 39.79C493.45 40.98 488.34 43.43 483.58 43.43C478.33 43.43 474.97 41.89 474.97 33.21V25.65H493.87V14.8H474.97V5H466.57ZM501.062 5V54H509.462V39.58C509.462 32.65 513.802 27.12 521.502 27.12C529.902 27.12 534.942 29.43 534.942 39.37V54H543.342V32.65C543.342 21.45 537.532 13.75 524.442 13.75C518.142 13.75 511.772 16.2 509.812 22.5H509.462V5H501.062ZM569.284 13.82C554.654 13.82 547.514 22.78 547.514 34.33C547.514 45.88 554.654 55.05 570.194 55.05C575.374 55.05 582.934 54 586.924 52.18L588.324 39.3C583.424 42.1 577.334 43.5 569.844 43.5C564.804 43.5 556.474 42.45 555.354 35.87H589.094C590.074 19.07 581.674 13.82 569.284 13.82ZM555.844 30.97C557.734 26.35 563.614 24.18 568.374 24.18C576.284 24.18 581.254 27.54 581.254 30.97H555.844ZM2.9 96V145H11.3V113.92L38.25 145H47.35V96H38.95V125.19L13.4 96H2.9ZM76.1473 104.82C61.5173 104.82 54.3773 113.78 54.3773 125.33C54.3773 136.88 61.5173 146.05 77.0573 146.05C82.2373 146.05 89.7973 145 93.7873 143.18L95.1873 130.3C90.2873 133.1 84.1973 134.5 76.7073 134.5C71.6673 134.5 63.3373 133.45 62.2173 126.87H95.9573C96.9373 110.07 88.5373 104.82 76.1473 104.82ZM62.7073 121.97C64.5973 117.35 70.4773 115.18 75.2373 115.18C83.1473 115.18 88.1173 118.54 88.1173 121.97H62.7073ZM129.896 145H143.966L127.376 124.35L141.866 105.8H131.996L122.406 118.19L112.396 105.8H98.3259L114.916 126.45L100.426 145H110.296L119.886 132.61L129.896 145ZM155.608 96V105.8H147.208L145.738 116.65H155.608V131.07C155.818 141.15 160.998 146.19 172.198 146.19C178.148 146.19 181.508 144.44 184.028 143.46L184.448 130.79C182.488 131.98 177.378 134.43 172.618 134.43C167.368 134.43 164.008 132.89 164.008 124.21V116.65H182.908V105.8H164.008V96H155.608ZM252.317 124.7V114.9H221.587V107.9H255.117V96H213.187V145H255.117V133.1H221.587V124.7H252.317ZM258.982 105.8L273.612 145H284.602L299.092 105.8H289.992L280.822 132.96L271.232 105.8H258.982ZM325.8 146.05C341.55 146.05 348.83 136.6 348.83 125.4C348.83 113.85 341.55 104.82 325.8 104.82C310.05 104.82 302.91 113.85 302.91 125.4C302.91 136.6 310.05 146.05 325.8 146.05ZM325.87 116.72C337.28 116.72 341.13 120.08 341.13 125.33C341.13 130.58 337.28 134.15 325.87 134.15C314.46 134.15 310.61 130.58 310.61 125.33C310.61 120.08 314.46 116.72 325.87 116.72ZM355.118 128.9C355.118 140.24 358.618 146.05 365.618 146.05C369.118 146.05 372.758 144.51 374.158 143.46V130.58C373.108 131.42 370.518 133.1 367.858 133.1C364.778 133.1 362.818 131.56 362.818 126.45V96H355.118V128.9ZM422.092 145V105.8H413.692V120.22C413.692 130.09 408.932 132.68 400.532 132.68C392.132 132.68 388.212 130.37 388.212 120.43V105.8H379.812V127.15C379.812 138.35 385.622 146.05 398.712 146.05C405.012 146.05 411.382 143.6 413.342 137.3H413.692L414.742 145H422.092ZM438.252 96V105.8H429.852L428.382 116.65H438.252V131.07C438.462 141.15 443.642 146.19 454.842 146.19C460.792 146.19 464.152 144.44 466.672 143.46L467.092 130.79C465.132 131.98 460.022 134.43 455.262 134.43C450.012 134.43 446.652 132.89 446.652 124.21V116.65H465.552V105.8H446.652V96H438.252ZM471.345 97.12C471.345 100.48 474.005 102.72 478.415 102.72C482.755 102.72 485.345 100.48 485.345 97.12C485.345 93.69 482.895 91.31 478.555 91.31C474.145 91.31 471.345 93.69 471.345 97.12ZM474.425 105.8V145H482.825V105.8H474.425ZM513.187 146.05C528.937 146.05 536.217 136.6 536.217 125.4C536.217 113.85 528.937 104.82 513.187 104.82C497.437 104.82 490.297 113.85 490.297 125.4C490.297 136.6 497.437 146.05 513.187 146.05ZM513.257 116.72C524.667 116.72 528.517 120.08 528.517 125.33C528.517 130.58 524.667 134.15 513.257 134.15C501.847 134.15 497.997 130.58 497.997 125.33C497.997 120.08 501.847 116.72 513.257 116.72ZM543.204 105.8V145H551.604V130.58C551.604 123.65 556.014 118.12 563.714 118.12C572.114 118.12 577.084 120.43 577.084 130.37V145H585.484V123.65C585.484 112.45 579.674 104.75 566.584 104.75C560.284 104.75 553.914 107.2 551.954 113.5H551.604L550.554 105.8H543.204ZM22.99 237.05C38.74 237.05 46.02 227.6 46.02 216.4C46.02 204.85 38.74 195.82 22.99 195.82C7.24 195.82 0.1 204.85 0.1 216.4C0.1 227.6 7.24 237.05 22.99 237.05ZM23.06 207.72C34.47 207.72 38.32 211.08 38.32 216.33C38.32 221.58 34.47 225.15 23.06 225.15C11.65 225.15 7.8 221.58 7.8 216.33C7.8 211.08 11.65 207.72 23.06 207.72ZM50.2074 207.65H60.3574V237.05L68.7574 237.19V207.65H87.0274L88.1474 196.8H69.2474C70.3674 193.44 73.3074 192.04 77.5074 192.04C82.6174 192.04 86.4674 193.65 88.4274 194.84L88.3574 182.31C86.0474 180.56 81.4274 179.37 76.1074 179.37C63.9274 179.37 60.3574 188.4 60.3574 196.8H50.2074V207.65ZM165.821 190.57C161.481 188.61 154.201 186.16 143.561 186.16C123.961 186.16 114.651 197.29 114.651 211.57C114.651 225.85 122.911 237.05 145.311 237.05C151.681 237.05 159.101 236.21 165.821 234.11L166.871 221.09C161.621 222.7 156.721 224.1 145.591 224.1C134.321 224.1 123.051 222.21 123.051 211.71C123.051 203.03 131.381 198.2 143.561 198.2C153.221 198.2 158.681 199.32 165.821 202.05V190.57ZM194.638 237.05C210.388 237.05 217.668 227.6 217.668 216.4C217.668 204.85 210.388 195.82 194.638 195.82C178.888 195.82 171.748 204.85 171.748 216.4C171.748 227.6 178.888 237.05 194.638 237.05ZM194.708 207.72C206.118 207.72 209.968 211.08 209.968 216.33C209.968 221.58 206.118 225.15 194.708 225.15C183.298 225.15 179.448 221.58 179.448 216.33C179.448 211.08 183.298 207.72 194.708 207.72ZM223.955 219.9C223.955 231.24 227.455 237.05 234.455 237.05C237.955 237.05 241.595 235.51 242.995 234.46V221.58C241.945 222.42 239.355 224.1 236.695 224.1C233.615 224.1 231.655 222.56 231.655 217.45V187H223.955V219.9ZM248.649 219.9C248.649 231.24 252.149 237.05 259.149 237.05C262.649 237.05 266.289 235.51 267.689 234.46V221.58C266.639 222.42 264.049 224.1 261.389 224.1C258.309 224.1 256.349 222.56 256.349 217.45V187H248.649V219.9ZM293.013 195.82C278.383 195.82 271.243 204.78 271.243 216.33C271.243 227.88 278.383 237.05 293.923 237.05C299.103 237.05 306.663 236 310.653 234.18L312.053 221.3C307.153 224.1 301.063 225.5 293.573 225.5C288.533 225.5 280.203 224.45 279.083 217.87H312.823C313.803 201.07 305.403 195.82 293.013 195.82ZM279.573 212.97C281.463 208.35 287.343 206.18 292.103 206.18C300.013 206.18 304.983 209.54 304.983 212.97H279.573ZM358.365 199.46C354.585 197.85 348.075 195.82 339.255 195.82C324.625 195.82 316.855 204.78 316.855 216.33C316.855 227.88 322.735 237.05 340.935 237.05C346.115 237.05 353.185 235.93 358.365 233.62V221.3C353.535 223.26 348.845 225.5 340.585 225.5C335.125 225.5 324.555 224.31 324.555 216.26C324.555 209.4 334.075 207.58 339.885 207.58C346.745 207.58 354.515 209.68 358.435 211.99L358.365 199.46ZM371.791 187V196.8H363.391L361.921 207.65H371.791V222.07C372.001 232.15 377.181 237.19 388.381 237.19C394.331 237.19 397.691 235.44 400.211 234.46L400.631 221.79C398.671 222.98 393.561 225.43 388.801 225.43C383.551 225.43 380.191 223.89 380.191 215.21V207.65H399.091V196.8H380.191V187H371.791ZM404.883 188.12C404.883 191.48 407.543 193.72 411.953 193.72C416.293 193.72 418.883 191.48 418.883 188.12C418.883 184.69 416.433 182.31 412.093 182.31C407.683 182.31 404.883 184.69 404.883 188.12ZM407.963 196.8V236H416.363V196.8H407.963ZM425.935 187V236H433.285L434.335 229.77H434.685C437.485 233.55 441.895 236.7 449.945 236.7C460.445 236.7 470.245 228.93 470.245 216.33C470.245 203.73 460.445 196.03 449.945 196.03C441.895 196.03 437.135 199.53 434.685 203.17H434.335V187H425.935ZM434.335 216.47C434.335 209.75 441.685 207.23 448.685 207.23C456.385 207.23 462.195 210.59 462.195 216.33C462.195 222.07 456.385 225.5 448.685 225.5C442.035 225.5 434.335 223.19 434.335 216.47ZM476.589 219.9C476.589 231.24 480.089 237.05 487.089 237.05C490.589 237.05 494.229 235.51 495.629 234.46V221.58C494.579 222.42 491.989 224.1 489.329 224.1C486.249 224.1 484.289 222.56 484.289 217.45V187H476.589V219.9ZM520.954 195.82C506.324 195.82 499.184 204.78 499.184 216.33C499.184 227.88 506.324 237.05 521.864 237.05C527.044 237.05 534.604 236 538.594 234.18L539.994 221.3C535.094 224.1 529.004 225.5 521.514 225.5C516.474 225.5 508.144 224.45 507.024 217.87H540.764C541.744 201.07 533.344 195.82 520.954 195.82ZM507.514 212.97C509.404 208.35 515.284 206.18 520.044 206.18C527.954 206.18 532.924 209.54 532.924 212.97H507.514ZM545.776 232.78C551.376 235.23 556.836 237.12 566.006 237.12C578.606 237.12 586.656 233.62 586.656 223.26C586.656 213.46 576.646 212.55 567.686 212.55C560.406 212.55 553.896 213.11 553.896 210.17C553.896 207.51 558.306 206.46 565.516 206.46C572.236 206.46 580.426 208.42 584.626 211.5L583.786 199.46C579.516 197.64 571.886 195.96 565.656 195.96C554.666 195.96 546.196 199.25 546.196 209.82C546.196 219.27 556.486 220.18 565.586 220.18C572.656 220.18 578.956 219.62 578.956 222.07C578.956 225.01 572.936 225.78 565.446 225.78C556.556 225.78 549.626 222.98 545.636 219.9L545.776 232.78Z" fill="white"/>
</svg>
